<svg xmlns="http://www.w3.org/2000/svg" width="500" height="500"><path d="M389.768 298.178s-.07.257-.284.373c-.215.117-.37.082-.92.018-5.846-.119-6.872 5.802-3.835 8.815a3.6 3.6 0 0 1-.64.325c-.756.312-1.086.499-1.195.682-.08.137-.197.746-.197.872h10.251c0-.126-.12-.735-.2-.872-.109-.183-.588-.37-1.343-.682-.49-.243-.736-.442-1.025-.761.196-.321.377-.706.19-1.018-1.428-.188-3.095-.914-3.626-2.266a.92.92 0 0 1-.056-.637c.143-.304.412-.102.443.069.034.265.158.538.336.73.252.274.34.31.768.34 2.015.139 2.023.098 2.707.692 0 0 .24.249.446.238.243-.081 1.192-.721 1.315-1.007-.451-1.386-1.543-2.962-2.498-4.219-.388-.376-.67-.358-.135-.574.262-.202.024-.533-.111-.73-.136-.198-.274-.347-.391-.388" style="fill:#000;fill-opacity:1;stroke:none;stroke-width:.220319px" transform="translate(-14440.68 -11232.552)scale(37.86174)"/></svg>